<svg xmlns="http://www.w3.org/2000/svg" version="1.1" width="600px" height="600px" viewBox="0 0 200 200" style="overflow:hidden!important;"><g id="svga-group-wrapper"><g id="svga-group-backs-single"><path id="SvgjsPath17650" d="M0 0h200v200H0V0z" fill="#ecf0f1" stroke-width="none" opacity="1"></path></g><g id="svga-group-humanwrap-move" transform="matrix(1,0,0,1,-2,-2)"><g id="svga-group-humanwrap"><g id="svga-group-hair-back-move" transform="matrix(1,-2.856368806070137e-18,2.856368806070137e-18,1,0,0)"><g id="svga-group-hair-back"></g></g><g id="svga-group-humanbody-back"><path id="SvgjsPath17595" d="M180.8 184.9c-2.3-3.4-38.9-17.8-38.9-17.8l-13.4-5.2-5.6-68.8H76.8L71.3 162l-13.4 5.2S21.4 181.6 19 185c-2.3 3.4-3.3 14.9-3.3 14.9V219h168.5v-19.2c-.1.1-1-11.5-3.4-14.9z" fill="#f0c7b1" stroke-width="none" opacity="1" stroke="none"></path></g><g id="svga-group-chinshadow-single"><path id="SvgjsPath17591" d="M74.72 148.31c2.3 3.7 4.08 7.78 6.37 12.59 1.85 3.82 9.93 3.51 12.23.91 2.4-2.6 2.74-2.22 5.04.38 2.4 2.6 10.28 2.62 12.66-1.12 1.42-2.24 3.83-9.05 6.13-12.75 1.25-1.92 5.5-5.97 9.47-10.04l-3.68-45.18H76.82l-4.19 52.64c.94 1.04 1.68 1.93 2.09 2.57z" fill="#d19271" stroke-width="none" opacity="1" stroke="none"></path></g><g id="svga-group-humanbody-front"><path id="SvgjsPath17596" d="M184.5 219c-.1-6.4-.1-12.8-.1-19.2l-.3-.1s.1-.1.2 0c.1 0 .1.1.1.1v-.4l-.1-.5-.1-.9-.2-1.9c-.2-1.3-.4-2.5-.6-3.8-.2-1.3-.5-2.5-.9-3.8-.4-1.2-.8-2.5-1.5-3.6-.8-.9-1.9-1.5-2.9-2.1-1-.6-2.1-1.1-3.2-1.7-2.1-1.1-4.3-2.1-6.5-3.1-4.4-2-8.7-3.9-13.1-5.7-4.4-1.9-8.8-3.7-13.2-5.5l-13-5.2-1.2-16.9c-.4-5.7-.9-11.5-1.3-17.2l-1.3-17.2-1.5-17.3-.1-.8h-.8c-7.7 0-15.4.1-23.1.1l-23.1.2h-.5v.5L75 110.2l-1.3 17.2c-.8 11.4-1.8 22.8-2.8 34.2-5.6 2.1-11.2 4.2-16.7 6.4-5.6 2.2-11.2 4.5-16.8 6.9-2.8 1.2-5.6 2.4-8.3 3.6-2.8 1.3-5.5 2.5-8.2 4.1-.7.4-1.3.8-2 1.4-.2.1-.4.4-.5.6l-.3.6c-.2.4-.4.7-.5 1.1-.6 1.5-1 3-1.3 4.5-.6 3-1.1 6-1.4 9.1l-.1 19.1v.9h.9l42.1.1H100c14 0 28.1-.1 42.1-.2l42.1-.5h.3v-.3zm-84.5-1-42.1-.1-41.2.1-.1-18.1c.3-3 .6-5.9 1.2-8.9.3-1.4.6-2.9 1.1-4.2.1-.3.3-.7.4-.9l.2-.4.3-.3c.5-.4 1.1-.8 1.8-1.2 2.5-1.5 5.3-2.8 8-4.1 2.7-1.3 5.5-2.5 8.2-3.7 5.5-2.4 11.1-4.8 16.7-7.1s11.2-4.5 16.9-6.7l.2-.1v-.2c.9-11.5 1.7-23 2.7-34.4l1.4-17.2 1.5-16.7 22.6.2c7.4.1 14.8.1 22.3.1l1.3 16.4 1.5 17.2c.5 5.7 1 11.5 1.5 17.2l1.6 17.2v.3l.3.1 13.4 5c4.4 1.7 8.9 3.4 13.3 5.2 4.4 1.8 8.8 3.7 13.2 5.6 2.2 1 4.3 2 6.5 3 1.1.5 2.1 1.1 3.2 1.6 1 .6 2.1 1.2 2.9 2 .7 1.1 1.1 2.3 1.4 3.5.3 1.2.6 2.5.8 3.7.2 1.3.4 2.5.6 3.8l.2 1.9.1.9.1.5v.4c0 6.3 0 12.6-.1 18.9l-41.8-.5c-14 .1-28.1 0-42.1 0z" fill="#c27b55" stroke-width="none" opacity="1" stroke="none"></path><path id="SvgjsPath17597" d="M125.1 142.4s-1.8 23-9.1 32.9c0 0 7.9-25 9.1-32.9zm-34.5 16s5 7.9 11.5 10.1c0 0-9.5 2.2-11.5-10.1zM73.4 140c6.7 25.6 6.7 25.6 8.5 30.7 0 0 .4-12.6-8.5-30.7z" fill="#d19271" stroke-width="none" opacity="1" stroke="none"></path></g><g id="svga-group-clothes-single"><path id="SvgjsPath17453" d="m71.9 145.1-6.2 2.5-.7 14.1v20.2L79 220h42l10.7-34.3 3.4-25.5-1.7-14.2-5.4-.8-.3 9.2s-26.2 22.2-26.6 22.7-29.2-22.8-29.2-22.8v-9.2z" fill="#eaeaea" stroke-width="none" opacity="1"></path><path id="SvgjsPath17454" d="m127.8 155.4.8-.3 4.9-9-5.5-.9-.2 10.2zm-56.3-1.6h-.4l-5.2-6.1 6.3-2.6-.7 8.7z" fill="#c9c9c9" stroke-width="none" opacity="1"></path><path id="SvgjsPath17455" d="m44.6 168 1.1 1.7s-24.9 7.2-29 9c0 0-4.4-3.1-6 3.4-1.6 6.5-3.8 30.8-3.8 37.9h72s-8.7-29-14.1-59.9L44.6 168zm144.6 14.1c-1.6-6.5-6-3.4-6-3.4-4.1-1.9-29-9-29-9l1.1-1.7-20.3-7.8c-5.3 30.8-14 59.8-14 59.8h72c.1-7.2-2.2-31.4-3.8-37.9z" fill="#880000" stroke-width="none" opacity="1" stroke="none"></path><path id="SvgjsPath17456" d="M89 180.6s4.9 12.4 6.4 15.4c0 0-2.8 17.1-2.9 23.8h18s-2.5-20-3.1-24.1c0 0 4.4-11 5.7-13.9 0 0-2.7-3.4-3.8-3.6-1.1-.2-8.7-.8-8.7-.8s-7.3.9-8.7 1.4c-1.4.4-2.9 1.8-2.9 1.8z" fill="#222222" stroke-width="none" opacity="1"></path><path id="SvgjsPath17457" d="M106.9 196c-1.1.5-3.8 1.9-5.2 2.1h-.5c-1.6-.1-4.2-1.3-5.3-1.8v-.2c.6.1 1.6.2 2.9.5 1.7.4 6.5-.4 8.1-.7m-5.5 17.2c1.2 1.5 3.4 2.7 3.1 1-.2-1.7-3.3-15.8-3.4-16-.1.7-.9 13.5.3 15zm-2.8-17.3s-.1-8.9-.6-9.8c-.5-.9-1.7-.1-2.1 1.8-.5 2 2.3 7.6 2.7 8zm-1.8 15.8c.5 2.7 1.9-.4 2.1-3.6.2-3.2-1.1-10.6-1.1-10.6-.2.5-1.5 11.4-1 14.2zm7.4-27.7c-1-1.1-2.5 1.9-2.8 4-.4 2.1-.2 6.3-.2 7.8-.1 0 3.9-10.7 3-11.8zm3.2 6.8c.6-1.2-.6-2.2-1.5-1.7s-1.7 5.3-2.1 7.2c0 0 3-4.2 3.6-5.5zm-2.4 18.4c.5 1 1.9 2.2 2.1 1.5.2-.7-2.7-12.5-2.7-12.5s.1 10 .6 11z" fill="#000000" stroke-width="none" opacity="1"></path><path id="SvgjsPath17458" d="m192.7 208.3-.9-11.6c-.3-3.9-.7-7.8-1.3-11.6-.2-1-.3-1.9-.5-2.9s-.5-2-1.1-3c-.5-1-1.6-1.9-2.9-2.1-.6-.1-1.2 0-1.8.1-.4.1-.8.3-1.2.5-2.3-.9-4.6-1.6-6.8-2.4l-7.3-2.2c-4.6-1.4-9.1-2.7-13.7-3.9l.6-.9.5-.7-.8-.3c-3.5-1.3-7-2.5-10.4-3.8l-9.2-3.2c0-.1 0-.2.1-.4l-2.2-14.2-6-1.4s-.5 4.6-.5 9.7l-13.8 11c-2.2 1.9-4.5 3.8-6.7 5.8l-3.3 2.9-1.7 1.5-.8.8c-2.3-1.6-4.6-3.4-6.9-5.1l-7.1-5.4-14.6-11.4.1-9.8c-.5.5-6.2 2.5-6.8 3v.1l-.6 8.6-.3 4-10 3.5c-3.4 1.2-6.9 2.5-10.4 3.8l-.8.3.5.7.6.9c-4.6 1.2-9.2 2.5-13.7 3.9l-7.3 2.2c-2.3.8-4.5 1.4-6.9 2.4-.4-.2-.7-.4-1.1-.5-.6-.2-1.2-.2-1.8-.1-1.3.2-2.3 1.1-2.8 2-.6 1-.9 2-1.1 3-.2 1-.3 2-.5 2.9-.5 3.9-.9 7.8-1.3 11.6l-.9 11.6c-.3 3.9-.6 7.8-.7 11.7v.3h.3c6 0 12 .1 18 .2l18 .3 18.1.3h78l18-.1c6-.1 12-.1 18-.3 6-.1 12-.2 18-.2h.4v-.4c-.1-3.9-.4-7.8-.7-11.7zm-88.1-33 3.4-2.9 6.8-5.7 13.6-11.5.2-.2-.4-9.6c1.8.4 3.6.8 5 1.1l1.1 13.6-1.1 8.5-1.4 6.4c-1.1 5-2.4 10-3.6 14.9-.7 2.9-1.5 5.9-2.3 8.8-.3-.8-.6-1.6-1-2.4-.3-.7-.6-1.4-1-2.1-.3-.7-.8-1.4-1.2-2-1.8-2.6-3.6-5-5.5-7.4-1-1.2-2-2.4-3-3.5-1.1-1.1-2.1-2.3-3.5-3.3-.3-.2-.7-.5-1.1-.7-.2-.1-.5-.2-.8-.3-.3-.1-.4 0-.6-.1l-2.3-.3-2.5-.3 1.2-1zm-38.8-19.1.2-8.5 5.7-2.1-.6 8.2 1.4 1.6h.1c4.5 3.8 9.1 7.6 13.7 11.3 2.3 1.9 4.6 3.7 6.9 5.6 1.8 1.4 3.5 2.8 5.4 4.2l-2.1.3c-.8.1-1.5.2-2.3.4l-1.2.2c-.2.1-.3.1-.6.1-.3.1-.5.2-.7.3-1.6.9-2.7 2-3.8 3.1-1.1 1.1-2.1 2.3-3.2 3.5-2 2.4-3.9 4.9-5.7 7.4-.9 1.3-1.8 2.6-2.6 3.9-.7 1.1-1.4 2.2-2 3.3-.8-2.9-1.5-5.9-2.3-8.8-1.2-5-2.5-9.9-3.6-14.9l-1.7-7.5-1-4.7c-.2-2.4-.1-4.8 0-6.9zM7.3 219.6c0-3.8.3-7.5.6-11.3.3-3.9.7-7.7 1.2-11.6.5-3.9 1-7.7 1.7-11.5.4-1.9.7-3.9 1.6-5.3.5-.7 1-1.2 1.7-1.2.7-.1 1.5.2 2.1.6l.4.3.4-.2c.6 1.4 1.1 2.7 1.6 4.1.6 1.7 1.1 3.4 1.3 5.1.5 3.5.8 7 1.2 10.5l1.2 10.5.7 5.3.6 4.5c-5.3.1-10.8.2-16.3.2zM61 219l-18 .1c-6 .1-12 .1-18 .3h-1.1c-.1-3.3-.4-6.5-.6-9.8-.3-3.5-.6-7-1-10.6-.4-3.5-.8-7-1.5-10.5-.7-3.2-2-6.3-3.5-9.1 2.2-.9 4.6-1.6 7-2.4l7.2-2.3 14.5-4.5h.1c.3.3.5.6.8.9.8.8 1.6 1.6 2.5 2.3-1.2.6-2.5 1.2-3.7 1.9l-.7.3.3.7c1.6 3.7 3.3 7.4 5 11 1.7 3.7 3.5 7.3 5.2 10.9l5.4 10.8c1.7 3.3 3.4 6.5 5.2 9.7-1.7.3-3.4.3-5.1.3zm5.3 0c-1.3-3.5-2.8-6.9-4.2-10.3-1.6-3.7-3.2-7.4-4.9-11.1-1.7-3.7-3.4-7.3-5.1-11-1.6-3.4-3.3-6.8-5-10.2 2.3-1.4 4.6-2.7 6.9-4.1l7.5-4.7c-1.4.6-2.7 1.2-4 1.8l-4 1.9c-1.3.7-2.7 1.4-4 2-.6-1-1.3-1.9-2-2.8-.5-.7-1.1-1.3-1.6-2l-.3-.4c3-1.2 6.1-2.5 9.1-3.8l10-4.2c0 .5.4 2.5.7 3.7l.3 1.8.3 1.9c.4 2.5.8 5.1 1.3 7.6 1 5 1.9 10.1 3.1 15.1 2.1 9.6 4.5 19.1 7.2 28.5-3.8.2-7.5.3-11.3.3zm13.6.2c-1.4-4.7-2.7-9.5-4-14.3-.5-2-1.1-3.9-1.6-5.9 1.7-2.3 3.5-4.5 5.3-6.7 2-2.4 4-4.7 6.1-7 1-1.1 2.1-2.2 3.2-3.3l.1-.1c1.2 3.1 4.6 11.4 5.9 14.1-.3 1.7-2.7 16.8-2.9 23.3l-12.1-.1zm13.1.1c.2-6.6 2.7-21.7 2.9-23.2v-.1l-.1-.1c-1.2-2.5-4.9-11.7-6-14.5.8-.7 1.7-1.4 2.5-1.8.1-.1.3-.1.4-.1.1 0 .3-.1.5-.1l1.1-.2c.8-.1 1.5-.2 2.3-.3 1.5-.2 3-.3 4.5-.5l4.5.5 2.3.2c.2 0 .4 0 .5.1.1 0 .2 0 .3.1.3.1.5.3.8.5 1 .7 1.9 1.6 2.8 2.5-1.5 3.5-5.4 13.3-5.5 13.4v.2c.6 4 2.7 20.3 3.1 23.5l-16.9-.1zm18 .3c-.2-1.5-2.5-19.7-3.1-23.9.4-1.1 3.8-9.4 5.2-12.9 1 1 1.9 2 2.8 3 2 2.3 4 4.6 5.9 7 .5.6 1 1.2 1.4 1.8.4.6.8 1.3 1.1 2l1.3 2.5-1.5 5.7c-1.3 4.9-2.7 9.9-4.2 14.8-2.9.1-5.9.1-8.9 0zm11.4-.7c2.7-9.4 5.1-18.9 7.2-28.5 1.1-5 2.1-10.1 3.1-15.1.4-2 .7-4.1 1.1-6.1 1-2.8 1.8-5.7 2.2-8.7l9.3 3.9c3.1 1.3 6.1 2.5 9.1 3.8l-.3.4c-.6.6-1.1 1.3-1.6 2-.7.9-1.3 1.8-1.9 2.8-1.3-.7-2.7-1.4-4-2l-4-1.9c-1.3-.6-2.7-1.3-4-1.8l7.5 4.7c2.3 1.4 4.6 2.8 6.9 4.1-1.7 3.4-3.4 6.8-5 10.2-1.8 3.6-3.4 7.3-5.1 11-1.7 3.7-3.3 7.4-4.9 11.1-1.5 3.4-2.9 6.8-4.2 10.3-3.9-.1-7.6-.2-11.4-.2zm52.6.5-18-.3-18-.1h-5.2c1.8-3.2 3.5-6.5 5.2-9.7 1.9-3.6 3.7-7.2 5.4-10.8 1.8-3.6 3.5-7.3 5.2-10.9 1.7-3.7 3.4-7.3 5-11l.3-.7-.7-.3c-1.2-.6-2.5-1.3-3.7-1.9.9-.7 1.7-1.5 2.5-2.3.3-.3.5-.6.8-.9h.1l14.5 4.5 7.2 2.3c2.4.8 4.8 1.5 7 2.4-1.6 2.8-2.9 5.9-3.5 9.1-.7 3.5-1.1 7-1.5 10.5-.4 3.5-.8 7-1 10.6-.2 3.3-.5 6.5-.6 9.8-.2-.3-.6-.3-1-.3zm1.2 0 .6-4.5.7-5.3c.5-3.5.8-7 1.2-10.5l1.2-10.5c.2-1.7.7-3.4 1.3-5.1.5-1.4 1-2.8 1.6-4.1l.4.2.4-.3c.6-.4 1.5-.7 2.1-.6.7.1 1.3.5 1.7 1.2.9 1.4 1.2 3.4 1.6 5.3.7 3.8 1.2 7.6 1.7 11.5.5 3.8.9 7.7 1.2 11.6.3 3.8.6 7.5.6 11.3-5.3 0-10.8-.1-16.3-.2z" fill="#690000" stroke-width="none" opacity="1" stroke="none"></path><path id="SvgjsPath17459" d="M111 174.5c3.5.2 9.7 9.1 9.7 9.1s8.9-15.3 9.7-19c.8-3.6 2-14.2 2-14.2s-3 9.7-3.8 11.1-17.6 13-17.6 13zm-33.5 15c2-3.5 8.4-11.7 9.9-12.5 1.5-.8 7.6-1.6 7.6-1.6l-15-10.9s2.1 8.2 2.1 10.1-4.6 14.9-4.6 14.9z" fill="#ffffff" stroke-width="none" opacity="1"></path><path id="SvgjsPath17460" d="M184.7 180.9c2.3.8 3.3 6.6 4.1 9.7.8 3.1 2.3 25.1 2.3 25.1s-3.1-25.1-4.6-28.7c-1.5-3.6-1.8-6.1-1.8-6.1zM155 172c1.5-.2 21.9 5.8 25.7 8.2 0 0-10.6-2.3-15.3-3.6-4.8-1.3-10.4-4.6-10.4-4.6zm-16.3-2.6c1 .5 13 7.8 13 7.8s-11.7 24.1-12.9 27.1-5.4 11.7-5.4 11.7 6.1-16.8 7.8-22.6c1.6-5.8 6.1-15.7 6.1-15.7l-8.6-8.3zm-74.2-2.8c.5 5.3 7.8 40.6 10.9 47.8 0 0-6.6-15.3-9.7-29.5-3.2-14.2-1.2-18.3-1.2-18.3z" fill="#970f0f" stroke-width="none" opacity="1" stroke="none"></path></g><g id="svga-group-head" transform="matrix(1,-2.856368806070137e-18,2.856368806070137e-18,1,0,0)"><g id="svga-group-ears-left-move" transform="matrix(1,0,0,1,0,0)"><g id="svga-group-ears-left"><path id="SvgjsPath17485" d="M68.41 84.17s-2.58-5.02-4.51-7.21-6.82-5.79-7.98-5.54-6.31 14.04-6.82 16.1c-.52 2.06 6.18 8.63 6.82 9.79.64 1.16.52 3.99.39 4.76s5.15 2.83 7.85 2.19c2.71-.65 10.05-9.54 4.25-20.09z" fill="#f0c7b1" stroke-width="none" opacity="1" stroke="none"></path><path id="SvgjsPath17486" d="M68.03 90.6s-5.92-8.11-9.91-10.82c-3.99-2.7-5.67 7.73-5.41 8.76s4.64 6.31 6.31 7.08 7.33-.64 9.01-5.02z" fill="#e1ac8f" stroke-width="none" opacity="1" stroke="none"></path><path id="SvgjsPath17487" d="M49.09 87.02c-.06.22-.14.41-.16.67 0 .24.03.48.11.7.29.87.78 1.62 1.26 2.35.49.73 1.03 1.43 1.58 2.12 1.09 1.38 2.25 2.71 3.34 4.05.13.17.27.34.36.49.09.15.15.33.21.52.11.38.16.8.19 1.22.06.84.05 1.71-.04 2.55l-.04.31c-.02.4.16.52.24.63.21.22.41.34.61.47.41.25.82.44 1.24.61.84.35 1.69.62 2.57.82.88.2 1.78.33 2.72.29.47-.02.95-.08 1.43-.3.26-.08.43-.23.64-.35.21-.12.39-.27.57-.42 2.81-2.39 4.39-5.88 4.78-9.42.13-.89.07-1.78.07-2.67-.12-.88-.17-1.77-.43-2.62-.36-1.73-1.1-3.35-1.9-4.91-.79-1.57-1.65-3.09-2.54-4.6-.45-.76-.92-1.5-1.44-2.22-.53-.72-1.15-1.36-1.79-1.97a28.138 28.138 0 0 0-4.17-3.28c-.38-.24-.76-.48-1.18-.67-.2-.1-.43-.18-.65-.27-.24-.06-.49-.15-.87-.07-.46.23-.48.42-.65.62-.13.2-.25.39-.36.59-.22.39-.42.79-.61 1.19-1.46 3.22-2.59 6.54-3.8 9.83l-.87 2.48-.42 1.26zm.13.69c.01-.17.09-.4.14-.6l.4-1.25c.28-.83.59-1.65.9-2.47.61-1.64 1.28-3.26 1.97-4.86.69-1.6 1.41-3.2 2.19-4.75.19-.39.39-.77.6-1.14.11-.18.22-.36.33-.53.06-.09.12-.15.17-.23.03-.04.08-.07.09-.08.03 0 .08 0 .14.01.09.02.17.04.26.07.18.07.37.14.56.24.37.18.75.39 1.12.6 1.47.89 2.86 1.95 4.2 3.05.66.56 1.3 1.14 1.85 1.8.55.66 1.06 1.38 1.55 2.1.97 1.45 1.83 2.98 2.66 4.52 1.61 3.08 2.43 6.67 1.76 10.07-.3 1.69-.84 3.33-1.65 4.84-.81 1.49-1.83 2.91-3.12 3.96-.16.14-.32.26-.49.36-.17.09-.34.24-.51.28-.31.16-.72.21-1.12.22-.81.03-1.66-.09-2.49-.26-.83-.18-1.65-.42-2.44-.73a9.77 9.77 0 0 1-1.13-.53c-.17-.1-.34-.22-.44-.31l-.03-.03.03-.26c.07-.91.08-1.8-.01-2.7a7.4 7.4 0 0 0-.26-1.36c-.08-.23-.16-.46-.31-.69a5 5 0 0 0-.43-.55c-1.16-1.35-2.37-2.59-3.51-3.92-.57-.66-1.12-1.33-1.64-2.03-.51-.7-1.01-1.43-1.28-2.23-.03-.22-.06-.42-.06-.61z" fill="#e1ac8f" stroke-width="none" opacity="1" stroke="none"></path><path id="SvgjsPath17488" d="M54.5 82.01c.34-.68.71-1.4 1.37-1.89.31-.25.82-.37 1.21-.16.39.19.65.53.87.83.92 1.24 1.7 2.57 2.38 3.94 1.31 2.76 2.4 5.61 3.21 8.56l-.08.03c-1.35-2.74-2.56-5.51-3.83-8.25-.62-1.37-1.2-2.78-1.98-4.06-.19-.33-.41-.61-.7-.78-.29-.16-.64-.09-.93.11-.56.44-.91 1.14-1.21 1.81-.55 1.39-.85 2.89-.94 4.35-.02.36-.02.73.04 1.06.02.17.06.31.11.43.09.16.16.32.26.47.37.63.8 1.24 1.25 1.84.45.6.9 1.2 1.38 1.78l.71.87c.06.07.12.13.18.2.2-.53.34-1.18.48-1.78l.43-2.13c-.6-.94-1.19-1.89-1.75-2.86l.07-.05c.75.89 1.48 1.79 2.19 2.7l.06.07-.01.12A29.5 29.5 0 0 1 59 91.5c-.14.77-.2 1.49-.53 2.33-.04.07-.05.11-.12.2-.03.04-.05.07-.13.13-.03.03-.07.05-.1.07-.06.03-.14.05-.21.05-.13.02-.29-.07-.35-.11l-.07-.06a.769.769 0 0 1-.13-.12c-.15-.15-.28-.29-.41-.43-.26-.29-.51-.58-.76-.88-.48-.6-.96-1.2-1.39-1.84-.44-.63-.86-1.28-1.24-1.97-.1-.17-.18-.36-.27-.54-.09-.24-.14-.46-.16-.67-.04-.42-.01-.82.03-1.21.18-1.57.68-3.04 1.34-4.44z" fill="#c27b55" stroke-width="none" opacity="1" stroke="none"></path></g></g><g id="svga-group-ears-right-move" transform="matrix(1,0,0,1,0,0)"><g id="svga-group-ears-right"><path id="SvgjsPath17489" d="M131.59 84.17s2.58-5.02 4.51-7.21 6.82-5.79 7.98-5.54 6.31 14.04 6.82 16.1c.52 2.06-6.18 8.63-6.82 9.79-.64 1.16-.52 3.99-.39 4.76.13.77-5.15 2.83-7.85 2.19-2.71-.65-10.05-9.54-4.25-20.09z" fill="#f0c7b1" stroke-width="none" opacity="1" stroke="none"></path><path id="SvgjsPath17490" d="M131.97 90.6s5.92-8.11 9.91-10.82c3.99-2.7 5.67 7.73 5.41 8.76-.26 1.03-4.64 6.31-6.31 7.08s-7.33-.64-9.01-5.02z" fill="#e1ac8f" stroke-width="none" opacity="1" stroke="none"></path><path id="SvgjsPath17491" d="m150.49 85.77-.87-2.48c-1.22-3.29-2.34-6.61-3.8-9.83-.19-.4-.39-.8-.61-1.19-.11-.2-.22-.39-.36-.59-.17-.2-.19-.39-.65-.62-.38-.08-.63.01-.87.07-.23.08-.45.16-.65.27-.42.19-.8.43-1.18.67-1.5.97-2.89 2.06-4.17 3.28-.64.61-1.26 1.25-1.79 1.97-.53.71-.99 1.46-1.44 2.22-.89 1.51-1.76 3.04-2.54 4.6-.8 1.56-1.54 3.17-1.9 4.91-.26.85-.3 1.74-.43 2.62 0 .89-.06 1.78.07 2.67.38 3.54 1.96 7.03 4.78 9.42.17.15.36.3.57.42.21.12.38.27.64.35.49.23.96.28 1.43.3.94.04 1.84-.09 2.72-.29.88-.2 1.74-.47 2.57-.82.42-.18.83-.37 1.24-.61.2-.13.4-.25.61-.47.08-.12.26-.23.24-.63l-.04-.31c-.09-.84-.09-1.71-.04-2.55.03-.42.09-.84.19-1.22.06-.19.12-.37.21-.52.1-.15.23-.33.36-.49 1.1-1.34 2.26-2.67 3.34-4.05.55-.69 1.08-1.39 1.58-2.12.49-.74.97-1.48 1.26-2.35.07-.22.11-.45.11-.7-.02-.27-.1-.45-.16-.67l-.42-1.26zm.19 2.53c-.27.8-.77 1.53-1.28 2.23s-1.07 1.37-1.64 2.03c-1.14 1.33-2.36 2.57-3.51 3.92-.14.17-.29.34-.43.55-.14.23-.23.46-.31.69a7.4 7.4 0 0 0-.26 1.36c-.09.9-.09 1.79-.01 2.7l.03.26c-.01.01-.01.02-.03.03-.1.1-.27.22-.44.31-.35.2-.73.38-1.13.53-.79.31-1.61.55-2.44.73-.83.17-1.67.29-2.49.26-.4-.01-.81-.07-1.12-.22-.17-.04-.34-.18-.51-.28-.17-.09-.33-.22-.49-.36-1.29-1.05-2.31-2.47-3.12-3.96-.81-1.5-1.35-3.15-1.65-4.84-.67-3.4.14-6.99 1.76-10.07.83-1.54 1.69-3.07 2.66-4.52.49-.72 1-1.43 1.55-2.1.55-.66 1.19-1.24 1.85-1.8 1.34-1.1 2.73-2.16 4.2-3.05.37-.22.74-.43 1.12-.6.19-.1.37-.17.56-.24.09-.03.17-.04.26-.07.07-.01.11-.01.14-.01.01.01.06.05.09.08.06.08.12.14.17.23.12.16.22.35.33.53.21.37.41.75.6 1.14.78 1.55 1.5 3.15 2.19 4.75.7 1.6 1.36 3.22 1.97 4.86.31.82.62 1.64.9 2.47l.4 1.25c.06.2.13.43.14.6.04.21.01.41-.06.61z" fill="#e1ac8f" stroke-width="none" opacity="1" stroke="none"></path><path id="SvgjsPath17492" d="M145.5 82.01c-.34-.68-.71-1.4-1.37-1.89-.31-.25-.82-.37-1.21-.16-.39.19-.65.53-.87.83-.92 1.24-1.7 2.57-2.38 3.94-1.31 2.76-2.4 5.61-3.21 8.56l.08.03c1.35-2.74 2.56-5.51 3.83-8.25.62-1.37 1.2-2.78 1.98-4.06.19-.33.41-.61.7-.78.29-.16.64-.09.93.11.56.44.91 1.14 1.21 1.81.55 1.39.85 2.89.94 4.35.02.36.01.73-.04 1.06-.02.17-.06.31-.11.43-.09.16-.16.32-.26.47-.37.63-.8 1.24-1.25 1.84-.45.6-.9 1.2-1.38 1.78l-.71.87c-.06.07-.12.13-.18.2-.2-.53-.34-1.18-.48-1.78l-.43-2.13c.6-.94 1.19-1.89 1.75-2.86l-.07-.05c-.75.89-1.48 1.79-2.19 2.7l-.06.07.01.12c.06.76.15 1.52.27 2.28.14.77.2 1.49.53 2.33.04.07.05.11.12.2.03.04.05.07.13.13.03.03.07.05.1.07.06.03.14.05.21.05.13.02.29-.07.35-.11l.07-.06c.05-.04.1-.08.13-.12.15-.15.28-.29.41-.43.26-.29.51-.58.76-.88.48-.6.96-1.2 1.39-1.84.44-.63.86-1.28 1.24-1.97.1-.17.18-.36.27-.54.09-.24.14-.46.16-.67.04-.42.01-.82-.03-1.21-.18-1.57-.68-3.04-1.34-4.44z" fill="#c27b55" stroke-width="none" opacity="1" stroke="none"></path></g></g><g id="svga-group-faceshape-wrap"><g id="svga-group-faceshape-single"><path id="SvgjsPath17575" d="M140.2 95.5c0-10.4.1-27 .1-27s.67-9.34-.23-13.44c-2.2-10-6.31-15.62-15.21-20.42-9.3-5-24.98-4.91-24.98-4.91S84 29.39 74.7 34.39c-8.7 4.8-12.71 10.55-14.91 20.55-.9 4 .02 13.59.02 13.59s.48 16.68.27 27.04c-.21 10.4.56 18.42 1.86 22.82s14.38 16.22 16.78 19.92c2.3 3.7 4.08 7.78 6.37 12.59 1.85 3.82 9.93 3.51 12.23.91 2.4-2.6 2.74-2.22 5.04.38 2.4 2.6 10.28 2.62 12.66-1.12 1.42-2.24 3.83-9.05 6.13-12.75 2.4-3.7 15.9-15.24 17.2-19.74 1.5-4.38 1.85-12.68 1.85-23.08z" fill="#f0c7b1" stroke-width="none" opacity="1" stroke="none"></path><path id="SvgjsPath17576" d="M100 148.3s1.4-6.2 3.6-9.2c0 0-3.3 1.4-4.6 4s1 5.2 1 5.2z" fill="#d19271" stroke-width="none" opacity="1" stroke="none"></path><path id="SvgjsPath17577" d="M140.07 55.06c-2.2-10-6.31-15.62-15.21-20.42-9.3-5-24.98-4.91-24.98-4.91S84 29.39 74.7 34.39c-8.7 4.8-12.71 10.55-14.91 20.55-.9 4 .02 13.59.02 13.59s.48 16.68.27 27.04c-.21 10.4.56 18.42 1.86 22.82s14.38 16.22 16.78 19.92c2.3 3.7 4.08 7.78 6.37 12.59 1.85 3.82 9.93 3.51 12.23.91 2.4-2.6 2.74-2.22 5.04.38 2.4 2.6 10.28 2.62 12.66-1.12 1.42-2.24 3.83-9.05 6.13-12.75 2.4-3.7 15.9-15.24 17.2-19.74 1.5-4.38 1.85-12.68 1.85-23.08s.1-27 .1-27 .67-9.34-.23-13.44zm-.25 51.26c-.24 3.59-.47 7.22-1.38 10.67-.21.87-.52 1.71-.9 2.45-.44.75-.96 1.46-1.51 2.16-1.12 1.38-2.36 2.68-3.6 3.98-2.51 2.57-5.15 5.03-7.74 7.55-1.3 1.28-2.6 2.51-3.82 3.99-1.24 1.59-1.97 3.23-2.8 4.87-.79 1.64-1.53 3.3-2.28 4.93-.37.82-.74 1.63-1.13 2.4-.19.39-.4.75-.6 1.08-.22.27-.39.54-.68.76-.52.46-1.19.84-1.94 1.07-.73.26-1.53.42-2.34.48-1.6.15-3.32-.05-4.66-.65-.34-.14-.63-.33-.86-.52l-.8-.85c-.31-.35-.63-.7-1.05-1.08a3.59 3.59 0 0 0-.8-.57c-.33-.18-.83-.34-1.34-.31-1.03.11-1.52.59-1.95.92-.4.35-.75.69-1.08 1.05-.08.08-1.55 1.09-1.74 1.14-1.42.53-3.12.69-4.69.5-1.55-.19-3.09-.8-3.68-1.8-.14-.16-.36-.69-.55-1.06l-.58-1.22-1.16-2.45c-.78-1.64-1.58-3.27-2.45-4.89-.44-.81-.89-1.61-1.36-2.41-.25-.4-.46-.79-.78-1.21-.3-.43-.6-.8-.91-1.15-1.22-1.43-2.47-2.73-3.72-4.05-2.5-2.61-5.04-5.18-7.41-7.84-1.19-1.33-2.35-2.68-3.33-4.09-.5-.69-.91-1.42-1.16-2.06-.25-.8-.46-1.65-.64-2.51-.7-3.44-1.03-7.02-1.24-10.59-.2-3.58-.23-7.15-.22-10.77 0-3.62-.08-7.24-.17-10.85l-.33-10.83-.1-2.71-.19-2.72c-.14-1.79-.26-3.59-.3-5.38s-.06-3.59.12-5.35c.07-.88.29-1.72.49-2.61.2-.87.45-1.73.7-2.59 1.02-3.42 2.62-6.68 4.87-9.42 2.29-2.72 5.19-4.88 8.31-6.59.77-.46 1.59-.77 2.38-1.16.84-.29 1.64-.65 2.5-.89 1.69-.55 3.43-.94 5.18-1.28a78.219 78.219 0 0 1 21.33-.82c3.55.32 7.08.87 10.52 1.68 3.47.81 6.7 2.03 9.73 3.82 3.01 1.8 5.82 3.92 7.96 6.65 2.13 2.72 3.66 5.92 4.67 9.32.27.84.48 1.71.71 2.57.2.83.33 1.69.41 2.57.18 1.76.22 3.56.23 5.35.01 1.8-.03 3.59-.11 5.39l.09 5.43c.13 7.23.13 14.45.12 21.67-.01 3.62-.05 7.23-.24 10.83z" fill="#c27b55" stroke-width="none" opacity="1" stroke="none"></path></g></g><g id="svga-group-mouth-single-move" transform="matrix(1,0,0,1,0,0)"><g id="svga-group-mouth-single"><path id="SvgjsPath17681" d="M88.64 129.04s3.92 4.45 11.7 5.26 12.4-6.49 12.4-6.49-2.95 7.35-11.7 7.67-12.08-5.85-12.4-6.44z" fill="#d19271" stroke-width="none" opacity="1" stroke="none"></path><path id="SvgjsPath17682" d="M86.4 126s2.7.4 4.5-1 4.6-4 5.5-5.5c.9-1.6 1.1 1.1 3.7 2s3.5-1.7 4-2.2 3.7 5.6 6.1 6.5c2.3.9 4.1 1.1 4.1 1.1s-2.4 1.6-6.1.7c-3.4-.8-5.6-1.9-7.2-1.8-1.5.1-5.2 1.7-8.5 1.4-3.2-.2-4.9-.5-6.1-1.2z" fill="#da7c87" stroke-width="none" opacity="1" stroke="none"></path><path id="SvgjsPath17683" d="M115.6 126.5c-1.3.1-2.4.7-3.8.8-1.3.1-2.6 0-3.8-.3-2.4-.5-4.6-1.5-7-1.4-2.5 0-4.8.9-7.3 1.1-2.7.2-5.5-.2-8-1.1-.3-.1-.6.4-.3.5 2.2 1.1 4.7 1.7 7.3 1.8 2.9.1 5.5-.9 8.3-1s5.4 1 8.2 1.3c2.1.2 5 .1 6.6-1.1.2-.3.1-.7-.2-.6z" fill="#cb5f6c" stroke-width="none" opacity="1" stroke="none"></path></g></g><g id="svga-group-eyes-left-move" transform="matrix(1,0,0,1,0,0)"><g id="svga-group-eyes-left"><g id="svga-group-eyesback-left"><path id="SvgjsPath17531" d="M80.2 74.2c7.5 0 13.5 5.8 13.5 13s-6 13-13.5 13-13.5-5.8-13.5-13 6-13 13.5-13z" fill="#ffffff" stroke-width="none" opacity="1"></path></g><g id="svga-group-eyesiriswrapper-left" transform="matrix(1,0,0,1,0,0)"><g id="svga-group-eyesiriscontrol-left" transform="matrix(1,0,0,1,0,-1)"><g id="svga-group-eyesiris-left"><path id="SvgjsPath17612" d="M80.2 81.9c2.9 0 5.3 2.4 5.3 5.3s-2.4 5.3-5.3 5.3-5.3-2.4-5.3-5.3 2.4-5.3 5.3-5.3z" fill="#217b51" stroke-width="none" opacity="1"></path><path id="SvgjsPath17613" d="M80.2 92.8c-3.1 0-5.6-2.5-5.6-5.6s2.5-5.6 5.6-5.6 5.6 2.5 5.6 5.6c0 3.1-2.5 5.6-5.6 5.6zm0-10.6c-2.8 0-5.1 2.3-5.1 5.1s2.3 5.1 5.1 5.1 5.1-2.3 5.1-5.1c-.1-2.9-2.3-5.1-5.1-5.1z" fill="#065c34" stroke-width="none" opacity="1"></path><path id="SvgjsPath17614" d="M80.2 84.3c1.6 0 2.9 1.3 2.9 2.9s-1.3 2.9-2.9 2.9-2.9-1.3-2.9-2.9 1.3-2.9 2.9-2.9z" fill="#000000" stroke-width="none" opacity="1"></path><path id="SvgjsPath17615" d="M78.9 84.3c.5 0 1 .4 1 1s-.4 1-1 1-1-.4-1-1 .5-1 1-1zm3.3 4.6c.2 0 .4.2.4.4s-.2.4-.4.4-.4-.2-.4-.4.2-.4.4-.4z" fill="#ffffff" stroke-width="none" opacity="1"></path></g></g></g><g id="svga-group-eyesfront-left"><path id="SvgjsPath17539" d="M80.2 73.7c-7.8 0-14.1 6.1-14.1 13.6s6.3 13.6 14.1 13.6 14.1-6.1 14.1-13.6S88 73.7 80.2 73.7zM79 90.6c-6.5-.3-11.9-2.5-12.1-2.9s4.4-3.8 14.1-3.4c9.7.5 11.6 5.2 11.6 5.2-1.6 1-7.2 1.4-13.6 1.1z" fill="#f0c7b1" stroke-width="none" opacity="1" stroke="none"></path><path id="SvgjsPath17540" d="M86 90.8c1.1-.1 2.3-.2 3.4-.3.6-.1 1.1-.2 1.7-.3.6-.2 1.1-.3 1.6-.6-.2-.6-.6-1-.9-1.4l-.6-.6c-.2-.2-.4-.4-.7-.5-.9-.7-2-1.2-3-1.6-2.2-.8-4.5-1.1-6.7-1.2-2.3-.1-4.6.1-6.8.6-1.1.2-2.2.5-3.3.8-1.1.4-2.2.8-3.1 1.4l-.3.3c-.1.1-.2.2-.3.4v.2s0 .1.1.1l.1.1.2.1c.1.1.3.1.4.2.5.3 1.1.5 1.6.7 1.1.4 2.2.7 3.3 1 2.2.5 4.5.9 6.8 1 1.9-.2 4.2-.3 6.5-.4zm-16.8-2.3c-.5-.2-1.1-.4-1.6-.6-.1-.1-.2-.1-.4-.2l-.2-.1c0-.1.1-.2.2-.2l.3-.3c.9-.6 1.9-1.1 3-1.5 1.1-.4 2.2-.7 3.3-.8 2.2-.4 4.5-.4 6.8-.3 1.1.1 2.2.2 3.4.3.6.1 1.1.2 1.7.3.5.2 1.1.3 1.6.5 1.1.3 2.1.8 3 1.4.9.6 1.8 1.4 2.3 2.4-.5.2-1.1.4-1.6.5-.6.1-1.1.2-1.7.2-1.1.1-2.2.2-3.4.2-2.3.1-4.5 0-6.8-.1-2.2-.1-4.5-.4-6.7-.9-1-.1-2.1-.4-3.2-.8z" fill="#000000" stroke-width="none" opacity="1" stroke="none"></path><path id="SvgjsPath17541" d="M76.9 94.9C88.7 96.3 93.6 91 93.6 91c-8.1 4.6-16.7 3.9-16.7 3.9zm7.9-13.1c4.3 1.4 5.9 2.8 5.9 2.8s-1.1-1.4-6.1-3.2c-5-1.8-14.6.4-14.6.4s10.2-1.6 14.8 0z" fill="#d19271" stroke-width="none" opacity="1" stroke="none"></path></g></g></g><g id="svga-group-eyes-right-move" transform="matrix(1,0,0,1,0,0)"><g id="svga-group-eyes-right"><g id="svga-group-eyesback-right"><path id="SvgjsPath17532" d="M119.8 74.2c7.5 0 13.5 5.8 13.5 13s-6 13-13.5 13-13.5-5.8-13.5-13 6-13 13.5-13z" fill="#ffffff" stroke-width="none" opacity="1"></path></g><g id="svga-group-eyesiriswrapper-right" transform="matrix(1,0,0,1,0,0)"><g id="svga-group-eyesiriscontrol-right" transform="matrix(1,0,0,1,0,-1)"><g id="svga-group-eyesiris-right"><path id="SvgjsPath17616" d="M119.8 82.5c2.6 0 4.7 2.1 4.7 4.7s-2.1 4.7-4.7 4.7-4.7-2.1-4.7-4.7 2.1-4.7 4.7-4.7z" fill="#217b51" stroke-width="none" opacity="1"></path><path id="SvgjsPath17617" d="M119.8 92.1c-2.7 0-4.9-2.2-4.9-4.9s2.2-4.9 4.9-4.9 4.9 2.2 4.9 4.9-2.2 4.9-4.9 4.9zm0-9.3c-2.4 0-4.4 2-4.4 4.4s2 4.4 4.4 4.4 4.4-2 4.4-4.4c0-2.4-2-4.4-4.4-4.4z" fill="#065c34" stroke-width="none" opacity="1"></path><path id="SvgjsPath17618" d="M119.8 84.7c1.4 0 2.5 1.1 2.5 2.5s-1.1 2.5-2.5 2.5-2.5-1.1-2.5-2.5 1.1-2.5 2.5-2.5z" fill="#000000" stroke-width="none" opacity="1"></path><path id="SvgjsPath17619" d="M118.7 84.7c.5 0 .9.4.9.9s-.4.9-.9.9-.9-.4-.9-.9.4-.9.9-.9zm2.9 4c.2 0 .3.2.3.3s-.2.3-.3.3-.3-.2-.3-.3.1-.3.3-.3z" fill="#ffffff" stroke-width="none" opacity="1"></path></g></g></g><g id="svga-group-eyesfront-right"><path id="SvgjsPath17542" d="M119.8 73.7c-7.8 0-14.1 6.1-14.1 13.6s6.3 13.6 14.1 13.6 14.1-6.1 14.1-13.6-6.3-13.6-14.1-13.6zm.5 15.6c-6.4.2-11.3.4-13-.4 0 0 1.9-3.6 11.5-3.9 9.6-.4 14.2 2.3 14 2.6-.2.3-6.1 1.5-12.5 1.7z" fill="#f0c7b1" stroke-width="none" opacity="1" stroke="none"></path><path id="SvgjsPath17545" d="M132.8 87.3c-.1-.1-.2-.2-.4-.2-2-1-4.2-1.4-6.4-1.8-2.2-.3-4.4-.5-6.6-.5-2.2 0-4.4.3-6.6.8-1.1.3-2.1.7-3.1 1.2-.5.2-1 .6-1.4.9-.4.4-.8.7-1.1 1.3.5.3 1.1.4 1.6.5.6.1 1.1.2 1.7.2 1.1.1 2.2.1 3.3.1 2.2 0 4.4-.1 6.6-.1 2.2-.1 4.4-.3 6.6-.6 1.1-.2 2.2-.3 3.3-.6.5-.1 1.1-.2 1.6-.4.3-.1.5-.2.8-.3 0 0 .1 0 .1-.1l.1-.1s.1-.1.1-.2c-.1-.1-.2-.1-.2-.1zm-1 .4c-.5.1-1.1.2-1.6.3-1.1.2-2.2.3-3.2.5-2.2.3-4.4.4-6.6.5l-6.6.2c-1.1 0-2.2.1-3.3 0-.6 0-1.1 0-1.6-.1s-1.1-.1-1.6-.3c.3-.4.7-.8 1.2-1.1.4-.3.9-.6 1.4-.8 1-.5 2-.8 3.1-1.1 2.1-.5 4.3-.7 6.5-.8 2.2-.1 4.4-.1 6.6.2 1.1.1 2.2.4 3.2.7s2.1.7 3 1.2c.1.1.2.1.3.2-.3.3-.5.4-.8.4z" fill="#000000" stroke-width="none" opacity="1" stroke="none"></path><path id="SvgjsPath17546" d="M107.1 90.3s4.8 5.2 16.5 3.9c0-.1-8.5.6-16.5-3.9zm6-6.1c4.4-2.2 14.4-2.2 14.4-2.2s-9.7-.7-14.3 1.8c-4.7 2.5-5.5 4-5.5 4s1.4-1.6 5.4-3.6z" fill="#d19271" stroke-width="none" opacity="1" stroke="none"></path></g></g></g><g id="svga-group-facehighlight-single"></g><g id="svga-group-eyebrows-left-move" transform="matrix(1,0,0,1,0,0)"><g id="svga-group-eyebrows-left-rotate" transform="matrix(1,1.7453292144864463e-9,-1.7453292144864463e-9,1,1.2424926865151065e-7,-1.3638876339427952e-7)"><g id="svga-group-eyebrows-left"><path id="SvgjsPath17439" d="M65.88 71.13c2.13-.71 4.25-1.44 6.39-2.04.53-.16 1.07-.3 1.6-.43.26-.05.53-.12.78-.16.3-.06.38-.04.62-.01.46.09.97.26 1.47.45.5.2 1 .42 1.5.65 1 .46 1.97 1 2.93 1.55.97.54 1.95 1.05 2.96 1.52 2.02.94 4.08 1.8 6.22 2.56l.12-.16c-.77-.89-1.67-1.6-2.58-2.28a30.81 30.81 0 0 0-2.82-1.89 23.88 23.88 0 0 0-3.03-1.53 87.21 87.21 0 0 0-3.18-1.24c-.54-.2-1.08-.39-1.64-.56-.56-.16-1.13-.32-1.78-.39-.18 0-.33-.03-.55.01-.23.02-.33.07-.49.1-.3.07-.57.17-.84.26-.54.19-1.08.39-1.6.6-1.05.43-2.08.88-3.1 1.35-1.02.46-2.04.95-3.04 1.45l.06.19z" fill="#2a232b" stroke-width="none" opacity="1"></path></g></g></g><g id="svga-group-eyebrows-right-move" transform="matrix(1,0,0,1,0,0)"><g id="svga-group-eyebrows-right-rotate" transform="matrix(1,1.7453292144864463e-9,-1.7453292144864463e-9,1,1.2713780961348675e-7,-2.1252871817978303e-7)"><g id="svga-group-eyebrows-right"><path id="SvgjsPath17440" d="M133.43 74.57c-1.92-.89-3.83-1.79-5.77-2.58-.48-.2-.97-.39-1.45-.57-.24-.08-.49-.17-.72-.23-.28-.08-.35-.08-.58-.07-.44.03-.93.14-1.42.27-.49.13-.98.29-1.47.45-.98.33-1.94.73-2.9 1.14-.96.41-1.94.78-2.93 1.11-1.99.66-4.01 1.25-6.09 1.74l-.09-.16c.82-.75 1.73-1.32 2.65-1.87.92-.55 1.87-1.03 2.84-1.47.97-.44 1.97-.81 3-1.12 1.03-.3 2.07-.56 3.11-.83.52-.13 1.05-.25 1.59-.35.55-.09 1.09-.18 1.71-.17.17.02.31.01.52.06.21.04.3.1.45.15.27.1.51.22.76.33.49.23.97.48 1.44.73.94.51 1.85 1.05 2.76 1.59.91.54 1.81 1.1 2.69 1.68l-.1.17z" fill="#2a232b" stroke-width="none" opacity="1"></path></g></g></g><g id="svga-group-beardwrap"><g id="svga-group-beard-single-move" transform="matrix(1,0,0,1,0,0)"><g id="svga-group-beard-single"><path id="SvgjsPath17429" d="M95.1 158s-6.6-5.4-8.3-11.6c-1.1-3.8 2.2-5.4 5.4-5.7 3.2-.3 10.7.4 10.7.4l-.1 2.4 1-2.5s5.1.4 7.6 1.5 1.7 4.4.4 7.1c-1.2 2.6-7.3 8.6-7.3 8.6v-1.1l-1 1.4-6.9-.3-2.5-2.2 1 2z" fill="#1b1b1b" stroke-width="none" opacity="1" stroke="none"></path><path id="SvgjsPath17430" d="M113.3 144.2c-.2-.6-.6-1.2-1.1-1.5-.5-.4-1.1-.6-1.6-.7-2.2-.6-4.5-.9-6.7-1.1h-.1l-.1.1-.7 1.7.1-1.6v-.1h-.1c-2.9-.2-5.7-.4-8.6-.5-1.4 0-2.9 0-4.3.4s-2.9 1.2-3.5 2.7c-.3.7-.3 1.6-.2 2.3.2.8.4 1.4.7 2.1.6 1.4 1.3 2.6 2.1 3.8 1.7 2.4 3.7 4.4 6 6.2l-.6-1.7 2.1 2 .1.1h.1c2.3.2 4.6.3 6.9.5h.2l.1-.1.4-.5v1l.6-.6c1.6-1.6 3.2-3.2 4.7-4.9.7-.9 1.5-1.7 2.1-2.7.7-1 1.1-2.1 1.4-3.2.1-1.3.3-2.5 0-3.7zm-.9 3.3c-.3 1-.8 2.1-1.4 2.9-.6.9-1.3 1.8-2.1 2.6-1.3 1.5-2.6 2.9-4 4.3v-1.2l-.6.8-.9 1.2c-2.2-.1-4.4-.1-6.7-.2l-2.5-2.1-.4-.3.2.4c.3.6.6 1.3.9 2-2-1.9-4-4.1-5.5-6.5-.8-1.2-1.5-2.4-2-3.7-.2-.6-.5-1.3-.6-2-.1-.7-.1-1.3.2-1.9.5-1.2 1.7-2 3-2.4 1.3-.4 2.8-.5 4.2-.6 2.8-.1 5.7.1 8.5.3l-.1 2.3v.8l.3-.7 1-2.3c2.2.3 4.4.6 6.4 1.3.5.2 1 .4 1.4.7.4.3.7.7.8 1.2.4 1 .2 2.1-.1 3.1zm-18.8 1.2-.4-1-.1 1c0 .3-.1.6-.1.9-.5-1-1-2-1.4-3.1-.5-1.3-.9-2.6-1.2-4 .1 1.4.5 2.8.9 4.1.4 1.4 1 2.6 1.7 3.9l.4.7.1-.8c0-.2.1-.5.1-.7.5 1.1 1 2.2 1.6 3.3.7 1.4 1.6 2.7 2.6 3.8-.8-1.3-1.6-2.6-2.2-4-.9-1.3-1.5-2.7-2-4.1zm15.1-.1-.5.1-.7.2c.2-1.1.5-2.2.7-3.3l-1.2 3.6-.1.4.4-.1.5-.1-1.2 2.1-1.4 2.6c.7-.8 1.2-1.6 1.8-2.4.5-.8 1.1-1.7 1.6-2.6l.1-.5zm-14.2-6.1c.2 2.4.7 4.7 1.3 7 .3 1.1.6 2.3 1.1 3.4.4 1.1.9 2.2 1.5 3.2-.8-2.2-1.4-4.5-2-6.8-.7-2.2-1.3-4.5-1.9-6.8zm-5.4 4.4c.8 1.8 1.8 3.5 3 5.1.6.8 1.2 1.6 1.8 2.3.7.7 1.3 1.5 2.1 2.1-1.3-1.5-2.4-3.1-3.6-4.7-1-1.6-2.1-3.2-3.3-4.8zm18 6.9c.5-.6 1-1.3 1.4-1.9l1.2-2.1c.8-1.4 1.5-2.8 2-4.4-.9 1.3-1.7 2.7-2.4 4.1-.8 1.5-1.5 2.9-2.2 4.3zm-3.6-3.9-1.5 6.6c.4-1 .8-2.1 1.1-3.2.3-1.1.6-2.2.8-3.3.2-1.1.4-2.2.6-3.4.2-1.1.3-2.2.3-3.4-.2 1.1-.4 2.2-.7 3.3l-.6 3.4zm-4.7-1.3c0 1.4.1 2.7.3 4 .1.7.2 1.3.4 2s.3 1.3.6 1.9c-.1-1.4-.2-2.7-.4-4-.3-1.3-.5-2.6-.9-3.9z" fill="#0c0c0c" stroke-width="none" opacity="1" stroke="none"></path></g></g></g><g id="svga-group-mustache-single-move" transform="matrix(1,0,0,1,0,1)"><g id="svga-group-mustache-single"><path id="SvgjsPath17722" d="M99.1 117.8c.5-2.1.9-4.7-4.3-4.5-5.2.2-10.8 1.8-13.5 4.6s-.9 4.4 1.2 4.4 10.7-1.4 13.2-1.6 3.1-1.2 3.4-2.9zm4.1 0c-.6-2-1.2-4.6 4.1-4.8 5.4-.2 11.2 1 14.2 3.7s1.2 4.4-1 4.5c-2.2.1-11.1-.7-13.7-.7-2.5-.1-3.1-1.1-3.6-2.7z" fill="#1b1b1b" stroke-width="none" opacity="1" stroke="none"></path><path id="SvgjsPath17723" d="M98.3 113.7c-.4-.3-.9-.5-1.4-.6-2-.4-4-.2-6 .2s-3.8 1.1-5.7 1.9c-1.8.8-3.6 1.8-4.8 3.5-.3.4-.6.9-.7 1.4-.1.5 0 1.2.4 1.7.8.9 2 1.1 3.1 1.1 2-.1 3.9-.3 5.9-.6 1.9-.3 3.9-.6 5.8-1 .9-.2 2-.2 2.9-.8.9-.5 1.3-1.6 1.5-2.5.2-.9.5-2 .1-3-.2-.6-.6-1-1.1-1.3zm-17.4 5.2c1-1.6 2.7-2.7 4.5-3.5 1.8-.7 3.7-1.1 5.7-1.3 1.3-.2 2.7-.3 4-.4v.1c-1.6 1.7-3.1 3.5-4.5 5.3-.4.4-.8.9-1.2 1.3l-.1.1v-.3l.1-.9c.1-1.2.2-2.3.4-3.4l.1-.5-.3.4c-1.1 1.6-2.2 3.1-3.3 4.7l-.6-3.6-.1-.6-.4.5c-.8 1.1-1.7 2.2-2.5 3.3l-.7-1.4-.1-.2-.1.2-1.3 2.4c-.3-.7-.1-1.5.4-2.2zm2.2 3c-.9.1-1.8-.1-2.4-.6-.1-.1-.1-.2-.2-.2l1.3-2.1.6 1.5.1.3.2-.3 2.4-3 .6 3.6.1.4c-.9.2-1.8.3-2.7.4zm16-4.1c-.1.5-.2.9-.5 1.4-.2.4-.6.8-1 .9-.9.4-1.8.3-2.8.4-2 .1-3.9.3-5.9.6-.9.1-1.9.3-2.8.4l.2-.3c1.1-1.6 2.1-3.3 3.1-4.9-.1 1-.1 2-.2 2.9l-.1.9v.6c.1.1.1 0 .1 0 .1 0 .1-.1.1-.1l.2-.2 1.2-1.2c1.5-1.6 2.9-3.2 4.3-4.8.2 1.6.3 3.3.6 4.9h.1c-.1-1.8-.1-3.6-.3-5.4v-.2h1.4c.9.1 1.9.4 2.3 1.2.4.9.2 2 0 2.9zm24.2 1c-.2-.6-.5-1-.8-1.4-1.4-1.6-3.3-2.5-5.2-3.2-1.9-.7-3.9-1.2-5.9-1.5-2-.2-4.1-.3-6.1.2-.5.1-1 .3-1.5.6-.4.3-.8.7-1 1.2-.3 1 0 2.1.3 3 .1.5.3 1 .6 1.4.3.4.7.8 1.2 1 1 .5 2 .4 3 .6 2 .3 4 .4 6 .6 2 .1 4 .2 6.1.2 1 0 2.3-.2 3.1-1.2.3-.3.4-1 .2-1.5zm-.9 1.2c-.3.3-.7.5-1.1.6-.4.1-.9.1-1.4.1h-.5l.1-.4.7-2.1 1.6 1.6-1.6-1.8-.1-.2-.1.2-.7 1.8c-.4-1.1-.9-2.2-1.4-3.2l-.3-.6-.2.7-.8 2.8c-1.2-1.6-2.3-3.2-3.5-4.7l-.2-.3-.1.3c-.4 1.6-.8 3.2-1.2 4.7-.8-.8-1.6-1.6-2.3-2.4-.8-.9-1.6-1.7-2.4-2.5l-.2-.2-.1.3c-.2.8-.5 1.5-.7 2.3-.2.6-.3 1.2-.5 1.8l-.5-1.3-.4-.9c-.1-.3-.2-.6-.4-.8.2.2.2.6.3.9l.3.9.6 1.8.2.5.2-.5c.3-.8.5-1.5.7-2.3.2-.6.4-1.3.6-1.9.8.7 1.5 1.5 2.3 2.2.9.8 1.7 1.6 2.5 2.4l.1.1v-.1c.4-1.5.9-3 1.3-4.5 1.1 1.7 2.3 3.3 3.5 5l.3.4.2-.5.8-2.6c.4 1 .9 2 1.4 3l.2.4-5.4-.3c-2-.1-4-.2-6-.2-1 0-2 .1-2.9-.2-.5-.2-.8-.5-1.1-.9s-.4-.9-.6-1.4c-.3-.9-.6-2-.2-2.9.4-.9 1.4-1.2 2.3-1.4 1.9-.2 3.9-.1 5.9 0 2 .1 4 .3 5.9 1 1.9.6 3.7 1.7 4.9 3.2.2.5.5 1.5 0 2.1z" fill="#0c0c0c" stroke-width="none" opacity="1" stroke="none"></path></g></g><g id="svga-group-nose-single-move" transform="matrix(1,0,0,1,0,0)"><g id="svga-group-nose-single"><path id="SvgjsPath17655" d="M110.66 104.38c.25.93-.49 3.19-1.5 4.38-1.01 1.18-1.6.4-2.31-.27 0 0-1.02-1.71-2.17-1.92-1.14-.21-1.88 1.31-3.09 1.99-1.21.69-2.21 1.32-2.81 1.29-.6-.03-4.4-2.52-4.4-2.52s-2.39.46-3.12 1.33c-.72.87-1.15 1.34-1.38 1.38-.23.04-.26-.02-.26-.02s-.69-2.12-.88-2.79c-.2-.67-.05-1.27.2-1.6.25-.33 2.06-1.42 2.06-1.42s-.37-.95-.05-1.64c.33-.69 2.48-2.37 4.25-2.76s3.31-1.1 5.41-.94c2.1.16 6.74 1.99 8.19 3.21 1.46 1.21 1.86 2.3 1.86 2.3z" fill="#f0c7b1" stroke-width="none" opacity="1" stroke="none"></path><path id="SvgjsPath17656" d="M94.8 90.92c.26 1.32.42 2.65.73 3.95.3 1.31.61 2.6.95 3.92l.09-.01c.16-1.37.04-2.73-.14-4.08-.17-1.35-.57-2.64-.91-3.95-.34-1.31-.71-2.6-1.09-3.89-.4-1.29-.81-2.57-1.24-3.85l-.09.03c.31 1.31.6 2.62.88 3.94.29 1.31.56 2.62.82 3.94z" fill="#c27b55" stroke-width="none" opacity="1" stroke="none"></path><path id="SvgjsPath17657" d="M104.67 106.4c-.09-.02-.2-.01-.3-.01-.11.02-.21.05-.29.1-.17.08-.31.17-.46.26-1.12.74-2.17 1.55-3.29 2.2-.28.15-.56.31-.84.41l-.21.08-.2.05c-.12.02-.22.03-.33-.01-.23-.05-.53-.21-.8-.35-.28-.16-.55-.32-.83-.5-1.1-.7-2.16-1.49-3.2-2.3-.52-.4-1.05-.81-1.54-1.23-.47-.39-.88-.87-1.03-1.37-.17-.5-.03-1.02.35-1.47.37-.45.88-.83 1.44-1.15 1.11-.65 2.34-1.15 3.59-1.53 1.26-.38 2.56-.63 3.89-.71-2.66-.18-5.4.38-7.83 1.62-.61.31-1.21.7-1.71 1.26-.13.13-.23.31-.34.46-.09.17-.18.35-.23.55-.13.39-.1.83 0 1.21.04.12.09.23.14.34-.49.12-.96.3-1.39.57-.28.16-.53.36-.78.64-.12.14-.23.32-.3.56-.01.07-.02.14-.02.21v.1l.01.07c.01.09.02.18.04.25.13.63.34 1.2.58 1.76.24.56.52 1.1.9 1.61-.01-.63-.1-1.23-.21-1.82-.11-.59-.25-1.18-.36-1.72-.02-.07-.02-.13-.03-.19l-.01-.05.01-.01s0-.01-.01-.02c.02-.03.01-.06.03-.1.03-.04.04-.08.08-.14.12-.2.33-.4.53-.6.32-.31.68-.63 1.03-.96.27.53.67.94 1.07 1.3.52.45 1.04.86 1.57 1.28.04.03.09.06.13.1-.28.02-.55.08-.8.17-.31.12-.59.3-.83.52-.24.22-.46.48-.59.81.71-.07 1.24-.28 1.77-.48.26-.1.51-.22.77-.33.13-.06.26-.11.4-.17.8.59 1.61 1.16 2.46 1.68.29.18.59.34.89.5.32.15.62.31 1.04.4.21.06.45.03.65-.01.2-.05.38-.11.54-.19.34-.15.63-.33.92-.51 1.15-.74 2.15-1.64 3.18-2.45.13-.1.26-.2.38-.28.13-.09.22-.1.36-.1.28.02.57.17.84.35.53.37 1 .85 1.38 1.39-.3-.6-.72-1.14-1.23-1.59-.3-.18-.59-.39-.98-.46z" fill="#c27b55" stroke-width="none" opacity="1" stroke="none"></path><path id="SvgjsPath17658" d="M111 104.19c-.12-.41-.3-.7-.53-.97-.45-.54-1.02-.93-1.66-1.13.41.52.79 1.02 1.06 1.53.12.25.25.54.27.76.03.24.02.53-.02.81-.07.57-.22 1.17-.39 1.76-.17.6-.37 1.19-.58 1.82.53-.41.93-.96 1.24-1.55.31-.59.56-1.22.64-1.92.05-.37.07-.73-.03-1.11z" fill="#c27b55" stroke-width="none" opacity="1" stroke="none"></path><path id="SvgjsPath17659" d="M101.11 100.66c-1.95-.8-4.77.64-6.5 1.51-1.75.88-.22 3.41 1.52 2.61.93-.43 1.9-.76 2.88-1.08.92-.3 1.85-.49 2.59-1.14.72-.63.23-1.6-.49-1.9z" fill="#f8d5c3" stroke-width="none" opacity="1" stroke="none"></path></g></g><g id="svga-group-hair-front"><path id="SvgjsPath17735" d="M121.4 30.8s-8.9-8.7-20-10.3-21.3 2.7-24.7 4.9c0 0 2.8-1.1 8.4.8 0 0-14.4 1-22.2 9.1s-8.7 19.4-8.7 19.4.8-7.4 5.9-11.2c0 0-14.3 25.5 1.9 53.8 0 0-2.5-8.6-1.9-14.4 0 0 2.5 14.3 5.3 18.6 0 0-2.3-18.2-.6-25.5 0 0 .6 7.4 2.5 11.6 0 0 .8-17.9 6.7-24.5 0 0-.6 4.6.4 8 0 0 6.3-10.8 11.8-14.8 0 0-3.8 5.1-5.3 9.9 0 0 4-5.3 9.1-7.6s9.3-4 9.3-4-3 5.7-7.2 6.8c0 0 11.2-.4 20.7-8.4 0 0-3.2 6.5-7.4 8 0 0 6.8-1.5 11.2-5.3 4.4-3.8 7.2-9.5 8.7-12.5 0 0 1.7 14.1 10.1 21.7 0 0 2.1 6.1 2.1 9.5s.2 17.9-3.4 25.7c0 0 6.1-9.9 8-19.2 0 0 2.5-5.1 3.8-10.3 1.3-5.1-.4-19.4-2.9-24.9 0 0 1.9 1 3 3.2 0 0-2.1-8-8.6-12.9s-12.9-4.2-12.9-4.2 4.2-1.7 9.1-1c0 0-2.9-3.6-12.2 0z" fill="#1b1b1b" stroke-width="none" opacity="1" stroke="none"></path><path id="SvgjsPath17736" d="M124.4 42.7c-3.4 9.4-9.9 15.4-19.7 18-.3.1-.2.6.1.5 9.5-1 18.4-9 20.1-18.4.1-.3-.4-.5-.5-.1zm-7.5 6.5c.2-.2-.2-.5-.4-.3-7.2 6.9-14.8 10.7-24.6 12.1-.4 0-.3.7.1.7 9.5-.2 19.1-4.9 24.9-12.5zm-7.9-.3c-9.2 5.5-23 7.7-28.8 17.6-.2.3.2.6.5.4 7.9-9.1 19.4-10.5 28.7-17.3.3-.4 0-1-.4-.7zm-6.9-2.9c.3-.2.1-.7-.3-.6-10.9 4.2-21.6 13.3-26.6 23.9-.2.3.3.6.5.3 7.3-10.4 15-17.8 26.4-23.6zm-18.3 3.4c-10.4 9.7-17.6 24-16.9 38.5 0 .4.6.4.6 0 1.3-14.7 6.1-27.6 16.6-38.2.2-.2-.1-.5-.3-.3zM73 54.5c.2-.3-.2-.5-.4-.2-8.5 12.1-11.8 29.1-7.3 43.4.1.4.7.2.6-.2-2.8-15.3-1-29.4 7.1-43zM60.7 66.6c0-.3-.5-.4-.6-.1-2 11.8-.8 24.7 4.9 35.3.2.3.8.1.6-.3-4.4-11.3-6.6-22.6-4.9-34.9zm-.5-23.4c.1-.3-.3-.6-.5-.3-9.1 16.5-8 38.5 1.6 54.5.2.4.8 0 .6-.3-9.1-17.4-9.4-35.9-1.7-53.9zm-6.1 11.4c2.5-15.9 13.6-26.5 29.7-27.9.3 0 .3-.5 0-.5-15.6-.1-29.4 12.6-30.2 28.3 0 .3.5.4.5.1zm22.8-28.8c7.7-4.2 16-6.3 24.7-4.7 7.2 1.3 12.9 5 18.7 9.3.4.3.8-.3.5-.6-10.8-12.3-31.1-13.2-44.2-4.4-.2.2.1.6.3.4zm29-7.3c3.5.6 6.7 1.8 9.5 4 2.9 2.3 4.4 5.1 6.2 8.3.2.4.7.1.6-.3-1.3-7.1-9.4-12.4-16.2-12.5-.3-.1-.4.4-.1.5zm16.3 13.3c4.1-1.7 7.6-1.8 11.8-.7.4.1.7-.5.3-.7-3.8-1.9-8.8-1.4-12.3.9-.3.1-.1.6.2.5zM136 89.3c0 .3.3.4.4.1 3.6-12 1.6-26.2-5-36.8-.2-.3-.5 0-.4.2 1.7 3.7 3 7.3 4 11-6.2-7.2-9.2-15-8.6-24.8 0-.3-.4-.3-.5-.1-1.8 9.3 1.8 20.1 9.4 26.1 1.8 7.9 2 15.8.7 24.3zm-11.4-57.2c10.6.8 17.9 7 21.2 17 .1.4.6.2.6-.2-1.7-10.3-11.5-17.8-21.8-17.5-.4.1-.4.6 0 .7zm16 8.4c-.2-.3-.7 0-.5.3 6.3 12 7.3 24.1 2.9 36.9-.1.3.4.5.5.2 5.6-11.6 4.4-26.7-2.9-37.4zm2.2 28.7c-.9 11.8-4.2 21.7-9.8 32-.2.4.4.7.6.3 6.6-9.1 9.9-21.1 9.7-32.3 0-.3-.4-.3-.5 0zM67.4 47.8c-.1.3.3.5.4.3C74 37.6 84.3 30.7 96.7 30.2c.3 0 .3-.4 0-.4-12.2-.2-24.1 6.7-29.3 18zm41.5-14c-3.7 2-7.5 3.4-11.4 4.9-.3.1-.2.5.1.4 4-1.1 7.8-3 11.4-5.1.3 0 .1-.3-.1-.2z" fill="#0c0c0c" stroke-width="none" opacity="1" stroke="none"></path></g><g id="svga-group-glasses-single-move" transform="matrix(1,0,0,1,0,2)"><g id="svga-group-glasses-single"><path id="SvgjsPath17922" d="M78.8 71.4c8.8 0 16 7.2 16 16s-7.2 16-16 16-16-7.2-16-16 7.1-16 16-16z" fill="url(#SvgjsLinearGradient17923)" opacity="1"></path><path id="SvgjsPath17931" d="M121 71.4c8.8 0 16 7.2 16 16s-7.2 16-16 16-16-7.2-16-16 7.2-16 16-16z" fill="url(#SvgjsLinearGradient17932)" opacity="1"></path><path id="SvgjsPath17940" d="M140.1 85.1h-2.8c-1.1-8-8-14.2-16.4-14.2-7.4 0-13.7 4.9-15.8 11.6-.1-.1-.1-.2-.2-.3-.5-.7-1.3-1-2.4-1.1H97.1c-1 .1-1.8.4-2.4 1.1-.1.1-.2.2-.2.3-2.1-6.7-8.4-11.6-15.8-11.6-8.3 0-15.2 6.2-16.4 14.2h-2.8v2.2h2.6v.2c0 9.1 7.4 16.5 16.5 16.5s16.6-7.4 16.6-16.5c0-.9-.1-1.9-.2-2.8 0 0-.1-1.1.5-1.8.3-.4.9-.7 1.6-.7H102.5c.7 0 1.3.3 1.6.7.6.7.5 1.8.5 1.8-.2.9-.2 1.8-.2 2.8 0 9.1 7.4 16.5 16.5 16.5s16.5-7.4 16.5-16.5v-.2h2.6l.1-2.2zm-61.3 17.8c-8.5 0-15.5-6.9-15.5-15.5S70.2 72 78.8 72s15.5 6.9 15.5 15.5-7 15.4-15.5 15.4zm42.2 0c-8.5 0-15.5-6.9-15.5-15.5S112.5 72 121 72s15.5 6.9 15.5 15.5-7 15.4-15.5 15.4z" fill="#323232" stroke-width="none" opacity="1" stroke="none"></path></g></g></g></g></g><rect id="svga-credit-rect" width="200" height="15" x="0" y="185" fill="#ecf0f1" opacity="0.5" style="display: none;"></rect><text id="svga-credit-text" font-family="Avenir Next, Roboto, Helvetica, Arial, sans-serif" font-size="10px" text-anchor="start" font-weight="400" size="10px" anchor="start" weight="400" fill="#333333" x="33.311859130859375" y="182.60824728012085" style="display: none;"><tspan id="SvgjsTspan17428" dy="13" x="33.311859130859375">Created on AvatarMaker.com</tspan></text></g><defs id="SvgjsDefs17375"><linearGradient id="SvgjsLinearGradient17756" x1="78.75" y1="71.43" x2="78.75" y2="103.45" gradientUnits="userSpaceOnUse" class="svga-on-canvas-glasses-gradient-single-0-null"><stop id="SvgjsStop17757" stop-opacity="1" stop-color="#211810" offset="0" ></stop><stop id="SvgjsStop17758" stop-opacity="0.5248" stop-color="#231910" offset="0.4752" ></stop><stop id="SvgjsStop17759" stop-opacity="0.3536" stop-color="#2a1d12" offset="0.6464" ></stop><stop id="SvgjsStop17760" stop-opacity="0.2315" stop-color="#352315" offset="0.7685" ></stop><stop id="SvgjsStop17761" stop-opacity="0.1329" stop-color="#462d18" offset="0.8671" ></stop><stop id="SvgjsStop17762" stop-opacity="4.940000e-02" stop-color="#5c391d" offset="0.9506" ></stop><stop id="SvgjsStop17763" stop-opacity="0" stop-color="#6d4221" offset="1" ></stop></linearGradient><linearGradient id="SvgjsLinearGradient17765" x1="121.01" y1="71.43" x2="121.01" y2="103.45" gradientUnits="userSpaceOnUse" class="svga-on-canvas-glasses-gradient-single-1-null"><stop id="SvgjsStop17766" stop-opacity="1" stop-color="#211810" offset="0" ></stop><stop id="SvgjsStop17767" stop-opacity="0.5248" stop-color="#231910" offset="0.4752" ></stop><stop id="SvgjsStop17768" stop-opacity="0.3536" stop-color="#2a1d12" offset="0.6464" ></stop><stop id="SvgjsStop17769" stop-opacity="0.2315" stop-color="#352315" offset="0.7685" ></stop><stop id="SvgjsStop17770" stop-opacity="0.1329" stop-color="#462d18" offset="0.8671" ></stop><stop id="SvgjsStop17771" stop-opacity="4.940000e-02" stop-color="#5c391d" offset="0.9506" ></stop><stop id="SvgjsStop17772" stop-opacity="0" stop-color="#6d4221" offset="1" ></stop></linearGradient><linearGradient id="SvgjsLinearGradient17838" x1="79.5772" y1="74.9681" x2="79.5772" y2="107.6386" gradientUnits="userSpaceOnUse" class="svga-on-canvas-glasses-gradient-single-0-null"><stop id="SvgjsStop17839" stop-opacity="1" stop-color="#150000" offset="0.004166667" ></stop><stop id="SvgjsStop17840" stop-opacity="0.8088" stop-color="#190300" offset="0.1945" ></stop><stop id="SvgjsStop17841" stop-opacity="0.6342" stop-color="#240c00" offset="0.3684" ></stop><stop id="SvgjsStop17842" stop-opacity="0.466" stop-color="#361b00" offset="0.5359" ></stop><stop id="SvgjsStop17843" stop-opacity="0.3018" stop-color="#503100" offset="0.6994" ></stop><stop id="SvgjsStop17844" stop-opacity="0.1421" stop-color="#724c00" offset="0.8585" ></stop><stop id="SvgjsStop17845" stop-opacity="0" stop-color="#966a00" offset="1" ></stop></linearGradient><linearGradient id="SvgjsLinearGradient17847" x1="-21.1858" y1="74.8347" x2="-21.1858" y2="107.5897" gradientTransform="matrix(-1 0 0 1 100 0)" gradientUnits="userSpaceOnUse" class="svga-on-canvas-glasses-gradient-single-1-null"><stop id="SvgjsStop17848" stop-opacity="1" stop-color="#150000" offset="0.004166667" ></stop><stop id="SvgjsStop17849" stop-opacity="0.8088" stop-color="#190300" offset="0.1945" ></stop><stop id="SvgjsStop17850" stop-opacity="0.6342" stop-color="#240c00" offset="0.3684" ></stop><stop id="SvgjsStop17851" stop-opacity="0.466" stop-color="#361b00" offset="0.5359" ></stop><stop id="SvgjsStop17852" stop-opacity="0.3018" stop-color="#503100" offset="0.6994" ></stop><stop id="SvgjsStop17853" stop-opacity="0.1421" stop-color="#724c00" offset="0.8585" ></stop><stop id="SvgjsStop17854" stop-opacity="0" stop-color="#966a00" offset="1" ></stop></linearGradient><linearGradient id="SvgjsLinearGradient17923" x1="78.75" y1="71.43" x2="78.75" y2="103.45" gradientUnits="userSpaceOnUse" class="svga-on-canvas-glasses-gradient-single-0-null"><stop id="SvgjsStop17924" stop-opacity="1" stop-color="#211810" offset="0" ></stop><stop id="SvgjsStop17925" stop-opacity="0.5248" stop-color="#231910" offset="0.4752" ></stop><stop id="SvgjsStop17926" stop-opacity="0.3536" stop-color="#2a1d12" offset="0.6464" ></stop><stop id="SvgjsStop17927" stop-opacity="0.2315" stop-color="#352315" offset="0.7685" ></stop><stop id="SvgjsStop17928" stop-opacity="0.1329" stop-color="#462d18" offset="0.8671" ></stop><stop id="SvgjsStop17929" stop-opacity="4.940000e-02" stop-color="#5c391d" offset="0.9506" ></stop><stop id="SvgjsStop17930" stop-opacity="0" stop-color="#6d4221" offset="1" ></stop></linearGradient><linearGradient id="SvgjsLinearGradient17932" x1="121.01" y1="71.43" x2="121.01" y2="103.45" gradientUnits="userSpaceOnUse" class="svga-on-canvas-glasses-gradient-single-1-null"><stop id="SvgjsStop17933" stop-opacity="1" stop-color="#211810" offset="0" ></stop><stop id="SvgjsStop17934" stop-opacity="0.5248" stop-color="#231910" offset="0.4752" ></stop><stop id="SvgjsStop17935" stop-opacity="0.3536" stop-color="#2a1d12" offset="0.6464" ></stop><stop id="SvgjsStop17936" stop-opacity="0.2315" stop-color="#352315" offset="0.7685" ></stop><stop id="SvgjsStop17937" stop-opacity="0.1329" stop-color="#462d18" offset="0.8671" ></stop><stop id="SvgjsStop17938" stop-opacity="4.940000e-02" stop-color="#5c391d" offset="0.9506" ></stop><stop id="SvgjsStop17939" stop-opacity="0" stop-color="#6d4221" offset="1" ></stop></linearGradient></defs></svg>