<svg height="800" width="800" version="1.1" viewBox="0 0 512 512"><path fill="currentColor" d="M460 52a177 177 0 0 0-269 228l-41 40-7-8c-4-4-10-4-13 0L15 427l-8 10a50 50 0 0 0 78 60l59-58a9 9 0 1 0-14-14l-58 59-1 1-44-44 1-1 108-108 44 44-30 29a9 9 0 1 0 14 14l36-37a9 9 0 0 0 0-13l-8-7 40-41a176 176 0 0 0 228-19c69-69 69-181 0-250zM53 493a31 31 0 0 1-34-34l34 34zm126-145-15-15 38-39a178 178 0 0 0 16 16l-39 38zm268-59a158 158 0 0 1-237-14 158 158 0 1 1 237 14z"/><path fill="currentColor" d="M424 88a9 9 0 1 0-13 13 106 106 0 0 1 0 152 107 107 0 1 1-21-168 9 9 0 1 0 9-16 125 125 0 1 0 25 19z"/></svg>
